<?xml version="1.0" standalone="no"?><!DOCTYPE svg PUBLIC "-//W3C//DTD SVG 1.1//EN" "http://www.w3.org/Graphics/SVG/1.1/DTD/svg11.dtd"><svg t="1788833980287" class="icon" viewBox="0 0 1024 1024" version="1.1" xmlns="http://www.w3.org/2000/svg" p-id="6652" xmlns:xlink="http://www.w3.org/1999/xlink" width="200" height="200"><path d="M171.712 157.568A101.056 101.056 0 0 1 243.136 128h473.728a101.056 101.056 0 0 1 101.056 101.056v568.448a101.056 101.056 0 0 1-101.12 101.056H243.2a101.056 101.056 0 0 1-101.12-101.12V229.12c0-26.816 10.688-52.48 29.632-71.488z m71.424 30.4a39.36 39.36 0 0 0-28.992 12.032 39.36 39.36 0 0 0-12.032 29.056v568.448a39.04 39.04 0 0 0 8.32 24.896l233.984-244.736a44.8 44.8 0 0 1 70.336 0l234.816 244.672a39.04 39.04 0 0 0 8.32-24.896V229.12a39.36 39.36 0 0 0-12.032-29.056 39.296 39.296 0 0 0-28.992-12.032H243.136zM29.568 252.416A101.056 101.056 0 0 1 101.12 222.72h6.336v60.032h-6.336a39.36 39.36 0 0 0-29.056 12.032 39.36 39.36 0 0 0-12.032 28.992v378.944c0 11.392 3.968 20.992 12.032 29.056a39.36 39.36 0 0 0 29.056 12.032h6.336v59.968h-6.336A101.056 101.056 0 0 1 0 702.72V323.84c0-26.88 10.624-52.544 29.568-71.488z m823.04-29.632h6.4A101.12 101.12 0 0 1 960 323.84v378.88a101.056 101.056 0 0 1-101.056 101.12h-6.336v-60.032h6.4a39.36 39.36 0 0 0 28.928-12.032 39.36 39.36 0 0 0 12.032-29.056V323.84a39.36 39.36 0 0 0-12.032-29.056 39.296 39.296 0 0 0-28.992-12.032h-6.336V222.72z m-159.808 157.696a90.24 90.24 0 0 0-1.344-27.776 111.616 111.616 0 0 0-5.376-17.728 92.672 92.672 0 0 0-8.768-16.384 98.816 98.816 0 0 0-18.688-20.608 100.48 100.48 0 0 0-23.872-14.336 99.392 99.392 0 0 0-26.944-6.72 91.52 91.52 0 0 0-36.8 3.584 102.144 102.144 0 0 0-17.152 7.168 85.248 85.248 0 0 0-15.424 10.24 98.24 98.24 0 0 0-23.488 28.608 102.656 102.656 0 0 0-7.04 17.216 104.128 104.128 0 0 0-3.648 18.176 91.328 91.328 0 0 0 1.28 27.776 110.272 110.272 0 0 0 5.44 17.728 93.696 93.696 0 0 0 14.336 23.872 98.048 98.048 0 0 0 28.544 23.488 102.848 102.848 0 0 0 17.216 7.04 104.32 104.32 0 0 0 18.176 3.648 91.52 91.52 0 0 0 36.8-3.584 101.952 101.952 0 0 0 17.152-7.168 85.888 85.888 0 0 0 15.424-10.24 97.664 97.664 0 0 0 23.488-28.608 101.568 101.568 0 0 0 9.344-26.24c0.576-3.008 1.024-6.08 1.28-9.152z" fill="currentColor" p-id="6653"></path></svg>